<svg xmlns="http://www.w3.org/2000/svg" viewBox="0 0 32 32">
  <path fill="#e24329" d="M16 0C7 0 0 3 0 6.5c0 2.4 7 5 16 5 7.3 0 13.8-1.7 16-3.6V6.4C32 3 25 0 16 0z"/>
  <path fill="#e24329" d="M0 9.3V13c0 2.4 7 5.2 16 5.2 7.3 0 13.8-2 16-3.8V9.7c-3.4 2-10 3.4-16 3.4-6.3 0-13-1.4-16-3.7z"/>
  <path fill="#fc6d26" d="M0 15.8v3.8c0 2.3 7 5 16 5 7.3 0 13.8-1.7 16-3.6v-4.8c-3.4 2-10 3.4-16 3.4-6.3 0-13-1.4-16-3.8z"/>
  <path fill="#fca326" d="M0 22.3v3.2C0 29 7 32 16 32s16-3 16-6.5v-2.7c-3.4 2-10 3.4-16 3.4-6.3 0-13-1.5-16-4z"/>
</svg>
